# xmcd
#
# Track frame offsets: 
#        150
#        8375
#        23362
#        39065
#        60800
#        82482
#        101270
#        119787
#        145055
#        159237
#        172735
#        195100
#        215175
#
# Disc length: 3148 seconds
#
# Revision: 0
# Processed by: cddbd v1.5.1PL0 Copyright (c) Steve Scherf et al.
# Submitted via: ExactAudioCopy v0.95b2
#
DISCID=8f0c4a0d
DTITLE=Intro - Vernissage
DYEAR=1984
DGENRE=Classical
TTITLE0=5 vor 4
TTITLE1=Insaiter
TTITLE2=Gute Nachricht
TTITLE3=Auferstehung
TTITLE4=Bossa for Him
TTITLE5=Cherubim
TTITLE6=Rag for Marcel
TTITLE7=Standing Ovation
TTITLE8=Zufriedenheit
TTITLE9=Dialog
TTITLE10=Jazzterday
TTITLE11=Johannes der Täufer
TTITLE12=Shalom
EXTD=
EXTT0=
EXTT1=
EXTT2=
EXTT3=
EXTT4=
EXTT5=
EXTT6=
EXTT7=
EXTT8=
EXTT9=
EXTT10=
EXTT11=
EXTT12=
PLAYORDER=
